# xmcd CD database file
#
# Track frame offsets:
#	150
#	14187
#	23580
#	37059
#	48456
#	62006
#	72683
#	88968
#	108938
#	132364
#	148115
#	160670
#	212825
#	224768
#	240780
#	259978
#	296272
#
# Disc length: 4136 seconds
#
# Revision: 2
# Processed by: cddbd v1.4b41PL1 Copyright (c) Steve Scherf et al.
# Submitted via: Feurio! 1.50.2ß - http://www.feurio.com
#
DISCID=0a102611
DTITLE=Luistervinken 3 - 2
DYEAR=1900
DGENRE=
TTITLE0=Elliot Smith - tomorrow tomorrow
TTITLE1=Jill Scott - exclusively
TTITLE2=Lynden David Hall - if i had to choose
TTITLE3=Toshi Kubota - nothing but your love
TTITLE4=Le Tone - expression du domaine de la lutte
TTITLE5=Elliot Smith - i didn't understand
TTITLE6=Cinerex - feminax
TTITLE7=Five Up High - five up high (the jew's got the blues)
TTITLE8=Horn Of Plenty - gonna b late
TTITLE9=Primus - ballad of Bodacious
TTITLE10=Arthur Ebeling - a rainy night in paris
TTITLE11=Astor Piazzolla - mumuki
TTITLE12=Carlos Gardel - por una cabeza
TTITLE13=Mezzoforte - garden party
TTITLE14=Liam Howlett - excerpts from the dirtchamber sessions
TTITLE15=Mike Mainieri - Sara's touch
TTITLE16=bonus - heel geheimzinnig
EXTD=
EXTT0=
EXTT1=
EXTT2=
EXTT3=
EXTT4=
EXTT5=
EXTT6=
EXTT7=
EXTT8=
EXTT9=
EXTT10=
EXTT11=
EXTT12=
EXTT13=
EXTT14=
EXTT15=
EXTT16=
PLAYORDER=
